<svg width="177" height="48" viewBox="0 0 177 48" fill="none" xmlns="http://www.w3.org/2000/svg">
<path d="M163.093 24.5599L151.422 23.2684C147.987 22.8845 147.097 21.9193 147.097 20.8253C147.097 18.437 149.387 17.5349 153.279 17.5349C155.001 17.5349 156.793 17.7241 158.128 18.3082C159.479 18.8182 160.42 19.7861 160.561 21.2695H175.719C174.951 11.3463 163.347 9.67094 154.165 9.67094C144.389 9.67094 137.407 11.371 134.591 16.2764C130.939 10.7595 122.049 9.67094 114.7 9.67094C104.269 9.67094 97.0359 11.5903 94.6168 17.3073C91.9138 11.5492 83.7834 10.1782 73.5743 10.1782C65.3438 10.1782 57.6269 11.0968 54.0022 16.3806C52.0156 5.47572 44.7798 0 32.8976 0H0V46.0186H30.9218C38.6927 46.0186 45.5582 44.2582 49.8694 39.0567C51.1209 44.6558 56.8241 47.4334 66.498 47.4334C73.3256 47.4334 78.864 46.5341 82.7616 42.794C82.8147 43.9009 83.0504 44.9908 83.459 46.0186H96.9737C96.313 44.8732 95.8847 43.6053 95.7142 42.2895C100.193 46.545 108.637 47.4334 115.405 47.4334C124.987 47.4334 131.623 45.6977 134.985 42.092C139.405 46.5258 147.997 47.4334 154.879 47.4334C169.221 47.4334 177 43.5645 177 35.3194C176.992 28.4891 172.394 25.5909 163.093 24.5599ZM27.862 35.7087H15.1744V10.3153H26.6484C34.7572 10.3153 38.89 14.3789 38.89 22.9476C38.89 29.2514 36.5358 35.7087 27.862 35.7087ZM54.5482 22.0455H65.4817C66.1142 19.0787 68.536 17.6583 73.5121 17.6583C79.4397 17.6583 82.0616 18.947 82.0616 21.3929C82.0616 23.1971 81.4831 23.9731 77.9747 24.2281L64.5221 25.1384C60.1974 25.4263 56.7755 26.1557 54.2942 27.5706C54.4743 26.0575 54.5645 24.5347 54.5645 23.0106C54.578 22.6706 54.5563 22.369 54.5482 22.0455ZM82.44 31.8398C82.44 36.6081 78.1017 39.5749 70.32 39.5749C66.6926 39.5749 64.2626 38.0257 64.2626 35.3194C64.2626 33.1943 65.4114 32.0976 68.1549 31.774L77.2692 30.6772C79.756 30.3509 81.4183 30.0356 82.44 29.7038V31.8398ZM116.167 39.1856C113.232 39.1856 111.38 38.7962 110.17 38.0888C108.961 37.4417 108.453 36.4107 108.256 35.1274H95.5709V27.6967C97.463 29.9533 100.825 31.2613 105.645 31.8398L117.7 33.3232C121.011 33.7071 122.349 34.2253 122.349 36.0926C122.349 38.6043 119.168 39.1856 116.17 39.1856H116.167ZM155.63 39.1856C152.695 39.1856 150.846 38.7962 149.638 38.0888C148.427 37.4417 147.919 36.4107 147.722 35.1274H137.51C137.418 28.4425 132.839 25.5771 123.628 24.5571L111.956 23.2657C108.513 22.8818 107.631 21.9166 107.631 20.8226C107.631 18.4343 109.921 17.5322 113.816 17.5322C115.538 17.5322 117.33 17.7214 118.665 18.3054C120.003 18.8154 120.954 19.7833 121.084 21.2668H133.247C133.231 21.541 133.204 21.8151 133.204 22.1058C133.204 28.0312 137.215 30.8801 145.119 31.8343L157.174 33.3177C160.493 33.7016 161.831 34.2198 161.831 36.0871C161.82 38.6043 158.631 39.1856 155.633 39.1856H155.63Z" fill="white"/>
</svg>
